<svg width="618.9950439453124px" height="129.22519531249998px" xmlns="http://www.w3.org/2000/svg" viewBox="-59.497521972656216 10.387402343750011 618.9950439453124 129.22519531249998" style="background:#051103" preserveAspectRatio="xMidYMid"><defs><linearGradient id="editing-glowing-gradient" x1="0.8146601955249185" x2="0.18533980447508147" y1="0.8885729807284856" y2="0.11142701927151444"><stop offset="0" stop-color="#67ff43"></stop><stop offset="1" stop-color="#90ffff"></stop></linearGradient><filter id="editing-glowing" x="-100%" y="-100%" width="300%" height="300%"><feGaussianBlur in="SourceGraphic" result="blur" stdDeviation="10"></feGaussianBlur><feMerge><feMergeNode in="blur"></feMergeNode><feMergeNode in="SourceGraphic"></feMergeNode></feMerge></filter></defs><g filter="url(#editing-glowing)"><g transform="translate(29.77500295639038, 107)"><path d="M45.63-25.66L45.63-46.08L50.88-46.08L50.88 0L45.63 0L45.63-20.42L8.83-20.42L8.83 0L3.65 0L3.65-46.08L8.83-46.08L8.83-25.66L45.63-25.66ZM63.04 0L57.79 0L57.79-37.12L63.04-37.12L63.04 0ZM57.79-44.03L57.79-49.28L63.04-49.28L63.04-44.03L57.79-44.03ZM96.19-37.12L118.46-37.12L118.46-37.12Q121.73-37.12 124-34.85L124-34.85L124-34.85Q126.27-32.58 126.27-29.38L126.27-29.38L126.27-15.94L93.70-15.94L93.70-7.74L93.70-7.74Q93.70-6.72 94.43-5.98L94.43-5.98L94.43-5.98Q95.17-5.25 96.19-5.25L96.19-5.25L126.27-5.25L126.27 0L96.19 0L96.19 0Q92.99 0 90.72-2.27L90.72-2.27L90.72-2.27Q88.45-4.54 88.45-7.74L88.45-7.74L88.45-29.38L88.45-29.38Q88.45-32.58 90.72-34.85L90.72-34.85L90.72-34.85Q92.99-37.12 96.19-37.12L96.19-37.12ZM93.70-29.38L93.70-21.18L120.96-21.18L120.96-29.38L120.96-29.38Q120.96-30.40 120.22-31.14L120.22-31.14L120.22-31.14Q119.49-31.87 118.46-31.87L118.46-31.87L96.19-31.87L96.19-31.87Q95.17-31.87 94.43-31.14L94.43-31.14L94.43-31.14Q93.70-30.40 93.70-29.38L93.70-29.38ZM153.09-5.12L170.50-37.12L176.64-37.12L156.10 0L150.02 0L129.54-37.12L135.68-37.12L153.09-5.12ZM187.84-37.12L210.11-37.12L210.11-37.12Q213.38-37.12 215.65-34.85L215.65-34.85L215.65-34.85Q217.92-32.58 217.92-29.38L217.92-29.38L217.92-15.94L185.34-15.94L185.34-7.74L185.34-7.74Q185.34-6.72 186.08-5.98L186.08-5.98L186.08-5.98Q186.82-5.25 187.84-5.25L187.84-5.25L217.92-5.25L217.92 0L187.84 0L187.84 0Q184.64 0 182.37-2.27L182.37-2.27L182.37-2.27Q180.10-4.54 180.10-7.74L180.10-7.74L180.10-29.38L180.10-29.38Q180.10-32.58 182.37-34.85L182.37-34.85L182.37-34.85Q184.64-37.12 187.84-37.12L187.84-37.12ZM185.34-29.38L185.34-21.18L212.61-21.18L212.61-29.38L212.61-29.38Q212.61-30.40 211.87-31.14L211.87-31.14L211.87-31.14Q211.14-31.87 210.11-31.87L210.11-31.87L187.84-31.87L187.84-31.87Q186.82-31.87 186.08-31.14L186.08-31.14L186.08-31.14Q185.34-30.40 185.34-29.38L185.34-29.38ZM231.87-37.12L231.87-37.12L252.74-37.12L252.74-31.87L231.87-31.87L231.87-31.87Q230.85-31.87 230.11-31.14L230.11-31.14L230.11-31.14Q229.38-30.40 229.38-29.38L229.38-29.38L229.38 0L224.13 0L224.13-29.38L224.13-29.38Q224.13-32.58 226.40-34.85L226.40-34.85L226.40-34.85Q228.67-37.12 231.87-37.12ZM294.02-36.99L294.02 6.91L294.02 6.91Q294.02 10.18 291.78 12.45L291.78 12.45L291.78 12.45Q289.54 14.72 286.27 14.72L286.27 14.72L263.10 14.72L263.10 9.41L286.27 9.41L286.27 9.41Q287.30 9.41 288.03 8.67L288.03 8.67L288.03 8.67Q288.77 7.94 288.77 6.91L288.77 6.91L288.77 0L264.00 0L264.00 0Q260.80 0 258.53-2.27L258.53-2.27L258.53-2.27Q256.26-4.54 256.26-7.74L256.26-7.74L256.26-36.99L261.50-36.99L261.50-7.74L261.50-7.74Q261.50-6.72 262.24-5.98L262.24-5.98L262.24-5.98Q262.98-5.25 264.00-5.25L264.00-5.25L286.27-5.25L286.27-5.25Q287.30-5.25 288.03-5.98L288.03-5.98L288.03-5.98Q288.77-6.72 288.77-7.74L288.77-7.74L288.77-36.99L294.02-36.99ZM306.94-37.12L306.94-37.12L329.22-37.12L329.22-37.12Q332.48-37.12 334.75-34.85L334.75-34.85L334.75-34.85Q337.02-32.58 337.02-29.38L337.02-29.38L337.02-7.74L337.02-7.74Q337.02-4.54 334.75-2.27L334.75-2.27L334.75-2.27Q332.48 0 329.22 0L329.22 0L306.94 0L306.94 0Q303.74 0 301.47-2.27L301.47-2.27L301.47-2.27Q299.20-4.54 299.20-7.74L299.20-7.74L299.20-29.38L299.20-29.38Q299.20-32.58 301.47-34.85L301.47-34.85L301.47-34.85Q303.74-37.12 306.94-37.12ZM329.22-31.87L329.22-31.87L306.94-31.87L306.94-31.87Q305.92-31.87 305.18-31.14L305.18-31.14L305.18-31.14Q304.45-30.40 304.45-29.38L304.45-29.38L304.45-7.74L304.45-7.74Q304.45-6.72 305.18-5.98L305.18-5.98L305.18-5.98Q305.92-5.25 306.94-5.25L306.94-5.25L329.22-5.25L329.22-5.25Q330.24-5.25 330.98-5.98L330.98-5.98L330.98-5.98Q331.71-6.72 331.71-7.74L331.71-7.74L331.71-29.38L331.71-29.38Q331.71-30.40 330.98-31.14L330.98-31.14L330.98-31.14Q330.24-31.87 329.22-31.87ZM342.72-37.12L372.80-37.12L372.80-37.12Q376.00-37.12 378.27-34.85L378.27-34.85L378.27-34.85Q380.54-32.58 380.54-29.38L380.54-29.38L380.54 0L375.30 0L375.30-29.38L375.30-29.38Q375.30-30.40 374.56-31.14L374.56-31.14L374.56-31.14Q373.82-31.87 372.80-31.87L372.80-31.87L350.53-31.87L350.53-31.87Q349.50-31.87 348.74-31.14L348.74-31.14L348.74-31.14Q347.97-30.40 347.97-29.38L347.97-29.38L347.97 0L342.72 0L342.72-37.12ZM394.82-37.12L417.09-37.12L417.09-37.12Q420.35-37.12 422.62-34.85L422.62-34.85L422.62-34.85Q424.90-32.58 424.90-29.38L424.90-29.38L424.90-15.94L392.32-15.94L392.32-7.74L392.32-7.74Q392.32-6.72 393.06-5.98L393.06-5.98L393.06-5.98Q393.79-5.25 394.82-5.25L394.82-5.25L424.90-5.25L424.90 0L394.82 0L394.82 0Q391.62 0 389.34-2.27L389.34-2.27L389.34-2.27Q387.07-4.54 387.07-7.74L387.07-7.74L387.07-29.38L387.07-29.38Q387.07-32.58 389.34-34.85L389.34-34.85L389.34-34.85Q391.62-37.12 394.82-37.12L394.82-37.12ZM392.32-29.38L392.32-21.18L419.58-21.18L419.58-29.38L419.58-29.38Q419.58-30.40 418.85-31.14L418.85-31.14L418.85-31.14Q418.11-31.87 417.09-31.87L417.09-31.87L394.82-31.87L394.82-31.87Q393.79-31.87 393.06-31.14L393.06-31.14L393.06-31.14Q392.32-30.40 392.32-29.38L392.32-29.38ZM431.55 8.38L431.55-5.25L436.80-5.25L436.80 1.02L436.80 1.02Q436.80 3.58 435.33 5.60L435.33 5.60L435.33 5.60Q433.86 7.62 431.55 8.38L431.55 8.38Z" fill="url(#editing-glowing-gradient)"></path></g></g><style>text {
  font-size: 64px;
  font-family: Arial Black;
  dominant-baseline: central;
  text-anchor: middle;
}</style></svg>