<svg width="1639.3349609375px" height="129.22501220703123px" xmlns="http://www.w3.org/2000/svg" viewBox="-569.66748046875 10.387493896484386 1639.3349609375 129.22501220703123" style="background:#051103" preserveAspectRatio="xMidYMid"><defs><linearGradient id="editing-glowing-gradient" x1="0.8146601955249185" x2="0.18533980447508147" y1="0.8885729807284856" y2="0.11142701927151444"><stop offset="0" stop-color="#67ff43"></stop><stop offset="1" stop-color="#90ffff"></stop></linearGradient><filter id="editing-glowing" x="-100%" y="-100%" width="300%" height="300%"><feGaussianBlur in="SourceGraphic" result="blur" stdDeviation="10"></feGaussianBlur><feMerge><feMergeNode in="blur"></feMergeNode><feMergeNode in="SourceGraphic"></feMergeNode></feMerge></filter></defs><g filter="url(#editing-glowing)"><g transform="translate(-345.5849976539612, 107)"><path d="M8.83 0L3.65 0L3.65-46.08L8.83-46.08L8.83 0ZM17.86-46.08L23.10-46.08L23.10-37.12L17.86-37.12L17.86-46.08ZM31.87-37.12L80.90-37.12L80.90-37.12Q84.16-37.12 86.40-34.85L86.40-34.85L86.40-34.85Q88.64-32.58 88.64-29.38L88.64-29.38L88.64 0L83.46 0L83.46-29.38L83.46-29.38Q83.46-30.40 82.69-31.14L82.69-31.14L82.69-31.14Q81.92-31.87 80.90-31.87L80.90-31.87L65.47-31.87L65.47-31.87Q64.45-31.87 63.71-31.14L63.71-31.14L63.71-31.14Q62.98-30.40 62.98-29.38L62.98-29.38L62.98 0L57.66 0L57.66-29.38L57.66-29.38Q57.66-30.40 56.93-31.14L56.93-31.14L56.93-31.14Q56.19-31.87 55.17-31.87L55.17-31.87L39.68-31.87L39.68-31.87Q38.66-31.87 37.92-31.14L37.92-31.14L37.92-31.14Q37.18-30.40 37.18-29.38L37.18-29.38L37.18 0L31.87 0L31.87-37.12ZM157.95-46.08L157.95-40.90L119.68-40.90L119.68-40.90Q118.66-40.90 117.92-40.16L117.92-40.16L117.92-40.16Q117.18-39.42 117.18-38.40L117.18-38.40L117.18-7.68L117.18-7.68Q117.18-6.66 117.92-5.92L117.92-5.92L117.92-5.92Q118.66-5.18 119.68-5.18L119.68-5.18L157.95-5.18L157.95 0L119.68 0L119.68 0Q116.48 0 114.24-2.24L114.24-2.24L114.24-2.24Q112-4.48 112-7.68L112-7.68L112-38.40L112-38.40Q112-41.60 114.24-43.84L114.24-43.84L114.24-43.84Q116.48-46.08 119.68-46.08L119.68-46.08L157.95-46.08ZM169.73-37.12L194.56-37.12L194.56-37.12Q197.76-37.12 200.03-34.85L200.03-34.85L200.03-34.85Q202.30-32.58 202.30-29.38L202.30-29.38L202.30 0L197.06 0L197.06-29.38L197.06-29.38Q197.06-30.40 196.32-31.14L196.32-31.14L196.32-31.14Q195.58-31.87 194.56-31.87L194.56-31.87L172.29-31.87L172.29-31.87Q171.26-31.87 170.50-31.14L170.50-31.14L170.50-31.14Q169.73-30.40 169.73-29.38L169.73-29.38L169.73 0L164.48 0L164.48-49.28L169.73-49.28L169.73-37.12ZM207.42-37.12L237.44-37.12L237.44-37.12Q240.70-37.12 242.98-34.85L242.98-34.85L242.98-34.85Q245.25-32.58 245.25-29.38L245.25-29.38L245.25 0L215.17 0L215.17 0Q211.97 0 209.70-2.27L209.70-2.27L209.70-2.27Q207.42-4.54 207.42-7.74L207.42-7.74L207.42-21.18L239.94-21.18L239.94-29.38L239.94-29.38Q239.94-30.40 239.20-31.14L239.20-31.14L239.20-31.14Q238.46-31.87 237.44-31.87L237.44-31.87L207.42-31.87L207.42-37.12ZM215.17-5.25L239.94-5.25L239.94-15.94L212.67-15.94L212.67-7.74L212.67-7.74Q212.67-6.72 213.41-5.98L213.41-5.98L213.41-5.98Q214.14-5.25 215.17-5.25L215.17-5.25ZM251.01-37.12L281.09-37.12L281.09-37.12Q284.29-37.12 286.56-34.85L286.56-34.85L286.56-34.85Q288.83-32.58 288.83-29.38L288.83-29.38L288.83 0L283.58 0L283.58-29.38L283.58-29.38Q283.58-30.40 282.85-31.14L282.85-31.14L282.85-31.14Q282.11-31.87 281.09-31.87L281.09-31.87L258.82-31.87L258.82-31.87Q257.79-31.87 257.02-31.14L257.02-31.14L257.02-31.14Q256.26-30.40 256.26-29.38L256.26-29.38L256.26 0L251.01 0L251.01-37.12ZM301.82-5.25L301.82-5.25L331.90-5.25L331.90 0L301.82 0L301.82 0Q298.62 0 296.35-2.27L296.35-2.27L296.35-2.27Q294.08-4.54 294.08-7.74L294.08-7.74L294.08-29.38L294.08-29.38Q294.08-32.58 296.35-34.85L296.35-34.85L296.35-34.85Q298.62-37.12 301.82-37.12L301.82-37.12L331.78-37.12L331.78-31.87L301.82-31.87L301.82-31.87Q300.80-31.87 300.06-31.14L300.06-31.14L300.06-31.14Q299.33-30.40 299.33-29.38L299.33-29.38L299.33-7.74L299.33-7.74Q299.33-6.72 300.06-5.98L300.06-5.98L300.06-5.98Q300.80-5.25 301.82-5.25ZM344.70-37.12L366.98-37.12L366.98-37.12Q370.24-37.12 372.51-34.85L372.51-34.85L372.51-34.85Q374.78-32.58 374.78-29.38L374.78-29.38L374.78-15.94L342.21-15.94L342.21-7.74L342.21-7.74Q342.21-6.72 342.94-5.98L342.94-5.98L342.94-5.98Q343.68-5.25 344.70-5.25L344.70-5.25L374.78-5.25L374.78 0L344.70 0L344.70 0Q341.50 0 339.23-2.27L339.23-2.27L339.23-2.27Q336.96-4.54 336.96-7.74L336.96-7.74L336.96-29.38L336.96-29.38Q336.96-32.58 339.23-34.85L339.23-34.85L339.23-34.85Q341.50-37.12 344.70-37.12L344.70-37.12ZM342.21-29.38L342.21-21.18L369.47-21.18L369.47-29.38L369.47-29.38Q369.47-30.40 368.74-31.14L368.74-31.14L368.74-31.14Q368-31.87 366.98-31.87L366.98-31.87L344.70-31.87L344.70-31.87Q343.68-31.87 342.94-31.14L342.94-31.14L342.94-31.14Q342.21-30.40 342.21-29.38L342.21-29.38ZM381.44-5.25L386.69-5.25L386.69 0L381.44 0L381.44-5.25ZM463.55-9.09L476.93-46.08L482.56-46.08L465.79 0L461.25 0L446.91-39.36L432.58 0L428.10 0L411.33-46.08L416.83-46.08L430.34-9.09L443.78-46.08L450.05-46.08L463.55-9.09ZM493.31-37.12L515.58-37.12L515.58-37.12Q518.85-37.12 521.12-34.85L521.12-34.85L521.12-34.85Q523.39-32.58 523.39-29.38L523.39-29.38L523.39-15.94L490.82-15.94L490.82-7.74L490.82-7.74Q490.82-6.72 491.55-5.98L491.55-5.98L491.55-5.98Q492.29-5.25 493.31-5.25L493.31-5.25L523.39-5.25L523.39 0L493.31 0L493.31 0Q490.11 0 487.84-2.27L487.84-2.27L487.84-2.27Q485.57-4.54 485.57-7.74L485.57-7.74L485.57-29.38L485.57-29.38Q485.57-32.58 487.84-34.85L487.84-34.85L487.84-34.85Q490.11-37.12 493.31-37.12L493.31-37.12ZM490.82-29.38L490.82-21.18L518.08-21.18L518.08-29.38L518.08-29.38Q518.08-30.40 517.34-31.14L517.34-31.14L517.34-31.14Q516.61-31.87 515.58-31.87L515.58-31.87L493.31-31.87L493.31-31.87Q492.29-31.87 491.55-31.14L491.55-31.14L491.55-31.14Q490.82-30.40 490.82-29.38L490.82-29.38ZM528.64-7.74L528.64-49.28L533.89-49.28L533.89-7.74L533.89-7.74Q533.89-6.72 534.62-5.98L534.62-5.98L534.62-5.98Q535.36-5.25 536.38-5.25L536.38-5.25L542.66-5.25L542.66 0L536.38 0L536.38 0Q533.18 0 530.91-2.27L530.91-2.27L530.91-2.27Q528.64-4.54 528.64-7.74L528.64-7.74ZM555.65-5.25L555.65-5.25L585.73-5.25L585.73 0L555.65 0L555.65 0Q552.45 0 550.18-2.27L550.18-2.27L550.18-2.27Q547.90-4.54 547.90-7.74L547.90-7.74L547.90-29.38L547.90-29.38Q547.90-32.58 550.18-34.85L550.18-34.85L550.18-34.85Q552.45-37.12 555.65-37.12L555.65-37.12L585.60-37.12L585.60-31.87L555.65-31.87L555.65-31.87Q554.62-31.87 553.89-31.14L553.89-31.14L553.89-31.14Q553.15-30.40 553.15-29.38L553.15-29.38L553.15-7.74L553.15-7.74Q553.15-6.72 553.89-5.98L553.89-5.98L553.89-5.98Q554.62-5.25 555.65-5.25ZM600.13-37.12L600.13-37.12L622.40-37.12L622.40-37.12Q625.66-37.12 627.94-34.85L627.94-34.85L627.94-34.85Q630.21-32.58 630.21-29.38L630.21-29.38L630.21-7.74L630.21-7.74Q630.21-4.54 627.94-2.27L627.94-2.27L627.94-2.27Q625.66 0 622.40 0L622.40 0L600.13 0L600.13 0Q596.93 0 594.66-2.27L594.66-2.27L594.66-2.27Q592.38-4.54 592.38-7.74L592.38-7.74L592.38-29.38L592.38-29.38Q592.38-32.58 594.66-34.85L594.66-34.85L594.66-34.85Q596.93-37.12 600.13-37.12ZM622.40-31.87L622.40-31.87L600.13-31.87L600.13-31.87Q599.10-31.87 598.37-31.14L598.37-31.14L598.37-31.14Q597.63-30.40 597.63-29.38L597.63-29.38L597.63-7.74L597.63-7.74Q597.63-6.72 598.37-5.98L598.37-5.98L598.37-5.98Q599.10-5.25 600.13-5.25L600.13-5.25L622.40-5.25L622.40-5.25Q623.42-5.25 624.16-5.98L624.16-5.98L624.16-5.98Q624.90-6.72 624.90-7.74L624.90-7.74L624.90-29.38L624.90-29.38Q624.90-30.40 624.16-31.14L624.16-31.14L624.16-31.14Q623.42-31.87 622.40-31.87ZM636.86-37.12L685.89-37.12L685.89-37.12Q689.15-37.12 691.39-34.85L691.39-34.85L691.39-34.85Q693.63-32.58 693.63-29.38L693.63-29.38L693.63 0L688.45 0L688.45-29.38L688.45-29.38Q688.45-30.40 687.68-31.14L687.68-31.14L687.68-31.14Q686.91-31.87 685.89-31.87L685.89-31.87L670.46-31.87L670.46-31.87Q669.44-31.87 668.70-31.14L668.70-31.14L668.70-31.14Q667.97-30.40 667.97-29.38L667.97-29.38L667.97 0L662.66 0L662.66-29.38L662.66-29.38Q662.66-30.40 661.92-31.14L661.92-31.14L661.92-31.14Q661.18-31.87 660.16-31.87L660.16-31.87L644.67-31.87L644.67-31.87Q643.65-31.87 642.91-31.14L642.91-31.14L642.91-31.14Q642.18-30.40 642.18-29.38L642.18-29.38L642.18 0L636.86 0L636.86-37.12ZM707.01-37.12L729.28-37.12L729.28-37.12Q732.54-37.12 734.82-34.85L734.82-34.85L734.82-34.85Q737.09-32.58 737.09-29.38L737.09-29.38L737.09-15.94L704.51-15.94L704.51-7.74L704.51-7.74Q704.51-6.72 705.25-5.98L705.25-5.98L705.25-5.98Q705.98-5.25 707.01-5.25L707.01-5.25L737.09-5.25L737.09 0L707.01 0L707.01 0Q703.81 0 701.54-2.27L701.54-2.27L701.54-2.27Q699.26-4.54 699.26-7.74L699.26-7.74L699.26-29.38L699.26-29.38Q699.26-32.58 701.54-34.85L701.54-34.85L701.54-34.85Q703.81-37.12 707.01-37.12L707.01-37.12ZM704.51-29.38L704.51-21.18L731.78-21.18L731.78-29.38L731.78-29.38Q731.78-30.40 731.04-31.14L731.04-31.14L731.04-31.14Q730.30-31.87 729.28-31.87L729.28-31.87L707.01-31.87L707.01-31.87Q705.98-31.87 705.25-31.14L705.25-31.14L705.25-31.14Q704.51-30.40 704.51-29.38L704.51-29.38ZM782.40-37.12L782.40-31.87L766.34-31.87L766.34-7.74L766.34-7.74Q766.34-6.72 767.07-5.98L767.07-5.98L767.07-5.98Q767.81-5.25 768.83-5.25L768.83-5.25L782.40-5.25L782.40 0L768.83 0L768.83 0Q765.57 0 763.33-2.27L763.33-2.27L763.33-2.27Q761.09-4.54 761.09-7.74L761.09-7.74L761.09-49.28L766.34-49.28L766.34-37.12L782.40-37.12ZM794.94-37.12L794.94-37.12L817.22-37.12L817.22-37.12Q820.48-37.12 822.75-34.85L822.75-34.85L822.75-34.85Q825.02-32.58 825.02-29.38L825.02-29.38L825.02-7.74L825.02-7.74Q825.02-4.54 822.75-2.27L822.75-2.27L822.75-2.27Q820.48 0 817.22 0L817.22 0L794.94 0L794.94 0Q791.74 0 789.47-2.27L789.47-2.27L789.47-2.27Q787.20-4.54 787.20-7.74L787.20-7.74L787.20-29.38L787.20-29.38Q787.20-32.58 789.47-34.85L789.47-34.85L789.47-34.85Q791.74-37.12 794.94-37.12ZM817.22-31.87L817.22-31.87L794.94-31.87L794.94-31.87Q793.92-31.87 793.18-31.14L793.18-31.14L793.18-31.14Q792.45-30.40 792.45-29.38L792.45-29.38L792.45-7.74L792.45-7.74Q792.45-6.72 793.18-5.98L793.18-5.98L793.18-5.98Q793.92-5.25 794.94-5.25L794.94-5.25L817.22-5.25L817.22-5.25Q818.24-5.25 818.98-5.98L818.98-5.98L818.98-5.98Q819.71-6.72 819.71-7.74L819.71-7.74L819.71-29.38L819.71-29.38Q819.71-30.40 818.98-31.14L818.98-31.14L818.98-31.14Q818.24-31.87 817.22-31.87ZM849.09-37.12L898.11-37.12L898.11-37.12Q901.38-37.12 903.62-34.85L903.62-34.85L903.62-34.85Q905.86-32.58 905.86-29.38L905.86-29.38L905.86 0L900.67 0L900.67-29.38L900.67-29.38Q900.67-30.40 899.90-31.14L899.90-31.14L899.90-31.14Q899.14-31.87 898.11-31.87L898.11-31.87L882.69-31.87L882.69-31.87Q881.66-31.87 880.93-31.14L880.93-31.14L880.93-31.14Q880.19-30.40 880.19-29.38L880.19-29.38L880.19 0L874.88 0L874.88-29.38L874.88-29.38Q874.88-30.40 874.14-31.14L874.14-31.14L874.14-31.14Q873.41-31.87 872.38-31.87L872.38-31.87L856.90-31.87L856.90-31.87Q855.87-31.87 855.14-31.14L855.14-31.14L855.14-31.14Q854.40-30.40 854.40-29.38L854.40-29.38L854.40 0L849.09 0L849.09-37.12ZM948.67-36.99L948.67 6.91L948.67 6.91Q948.67 10.18 946.43 12.45L946.43 12.45L946.43 12.45Q944.19 14.72 940.93 14.72L940.93 14.72L917.76 14.72L917.76 9.41L940.93 9.41L940.93 9.41Q941.95 9.41 942.69 8.67L942.69 8.67L942.69 8.67Q943.42 7.94 943.42 6.91L943.42 6.91L943.42 0L918.66 0L918.66 0Q915.46 0 913.18-2.27L913.18-2.27L913.18-2.27Q910.91-4.54 910.91-7.74L910.91-7.74L910.91-36.99L916.16-36.99L916.16-7.74L916.16-7.74Q916.16-6.72 916.90-5.98L916.90-5.98L916.90-5.98Q917.63-5.25 918.66-5.25L918.66-5.25L940.93-5.25L940.93-5.25Q941.95-5.25 942.69-5.98L942.69-5.98L942.69-5.98Q943.42-6.72 943.42-7.74L943.42-7.74L943.42-36.99L948.67-36.99ZM972.93-37.12L1003.01-37.12L1003.01-37.12Q1006.21-37.12 1008.48-34.85L1008.48-34.85L1008.48-34.85Q1010.75-32.58 1010.75-29.38L1010.75-29.38L1010.75-7.74L1010.75-7.74Q1010.75-4.54 1008.48-2.27L1008.48-2.27L1008.48-2.27Q1006.21 0 1003.01 0L1003.01 0L978.18 0L978.18 14.72L972.93 14.72L972.93-37.12ZM1005.50-7.74L1005.50-7.74L1005.50-29.38L1005.50-29.38Q1005.50-30.40 1004.77-31.14L1004.77-31.14L1004.77-31.14Q1004.03-31.87 1003.01-31.87L1003.01-31.87L980.74-31.87L980.74-31.87Q979.71-31.87 978.94-31.14L978.94-31.14L978.94-31.14Q978.18-30.40 978.18-29.38L978.18-29.38L978.18-7.74L978.18-7.74Q978.18-6.72 978.94-5.98L978.94-5.98L978.94-5.98Q979.71-5.25 980.74-5.25L980.74-5.25L1003.01-5.25L1003.01-5.25Q1004.03-5.25 1004.77-5.98L1004.77-5.98L1004.77-5.98Q1005.50-6.72 1005.50-7.74ZM1023.04-37.12L1023.04-37.12L1043.90-37.12L1043.90-31.87L1023.04-31.87L1023.04-31.87Q1022.02-31.87 1021.28-31.14L1021.28-31.14L1021.28-31.14Q1020.54-30.40 1020.54-29.38L1020.54-29.38L1020.54 0L1015.30 0L1015.30-29.38L1015.30-29.38Q1015.30-32.58 1017.57-34.85L1017.57-34.85L1017.57-34.85Q1019.84-37.12 1023.04-37.12ZM1055.42-37.12L1055.42-37.12L1077.70-37.12L1077.70-37.12Q1080.96-37.12 1083.23-34.85L1083.23-34.85L1083.23-34.85Q1085.50-32.58 1085.50-29.38L1085.50-29.38L1085.50-7.74L1085.50-7.74Q1085.50-4.54 1083.23-2.27L1083.23-2.27L1083.23-2.27Q1080.96 0 1077.70 0L1077.70 0L1055.42 0L1055.42 0Q1052.22 0 1049.95-2.27L1049.95-2.27L1049.95-2.27Q1047.68-4.54 1047.68-7.74L1047.68-7.74L1047.68-29.38L1047.68-29.38Q1047.68-32.58 1049.95-34.85L1049.95-34.85L1049.95-34.85Q1052.22-37.12 1055.42-37.12ZM1077.70-31.87L1077.70-31.87L1055.42-31.87L1055.42-31.87Q1054.40-31.87 1053.66-31.14L1053.66-31.14L1053.66-31.14Q1052.93-30.40 1052.93-29.38L1052.93-29.38L1052.93-7.74L1052.93-7.74Q1052.93-6.72 1053.66-5.98L1053.66-5.98L1053.66-5.98Q1054.40-5.25 1055.42-5.25L1055.42-5.25L1077.70-5.25L1077.70-5.25Q1078.72-5.25 1079.46-5.98L1079.46-5.98L1079.46-5.98Q1080.19-6.72 1080.19-7.74L1080.19-7.74L1080.19-29.38L1080.19-29.38Q1080.19-30.40 1079.46-31.14L1079.46-31.14L1079.46-31.14Q1078.72-31.87 1077.70-31.87ZM1113.41-44.03L1099.84-44.03L1099.84-44.03Q1098.82-44.03 1098.08-43.30L1098.08-43.30L1098.08-43.30Q1097.34-42.56 1097.34-41.54L1097.34-41.54L1097.34-37.12L1113.41-37.12L1113.41-31.87L1097.34-31.87L1097.34 0L1092.10 0L1092.10-41.54L1092.10-41.54Q1092.10-44.80 1094.34-47.04L1094.34-47.04L1094.34-47.04Q1096.58-49.28 1099.84-49.28L1099.84-49.28L1113.41-49.28L1113.41-44.03ZM1123.33 0L1118.08 0L1118.08-37.12L1123.33-37.12L1123.33 0ZM1118.08-44.03L1118.08-49.28L1123.33-49.28L1123.33-44.03L1118.08-44.03ZM1131.39-7.74L1131.39-49.28L1136.64-49.28L1136.64-7.74L1136.64-7.74Q1136.64-6.72 1137.38-5.98L1137.38-5.98L1137.38-5.98Q1138.11-5.25 1139.14-5.25L1139.14-5.25L1145.41-5.25L1145.41 0L1139.14 0L1139.14 0Q1135.94 0 1133.66-2.27L1133.66-2.27L1133.66-2.27Q1131.39-4.54 1131.39-7.74L1131.39-7.74ZM1157.44-37.12L1179.71-37.12L1179.71-37.12Q1182.98-37.12 1185.25-34.85L1185.25-34.85L1185.25-34.85Q1187.52-32.58 1187.52-29.38L1187.52-29.38L1187.52-15.94L1154.94-15.94L1154.94-7.74L1154.94-7.74Q1154.94-6.72 1155.68-5.98L1155.68-5.98L1155.68-5.98Q1156.42-5.25 1157.44-5.25L1157.44-5.25L1187.52-5.25L1187.52 0L1157.44 0L1157.44 0Q1154.24 0 1151.97-2.27L1151.97-2.27L1151.97-2.27Q1149.70-4.54 1149.70-7.74L1149.70-7.74L1149.70-29.38L1149.70-29.38Q1149.70-32.58 1151.97-34.85L1151.97-34.85L1151.97-34.85Q1154.24-37.12 1157.44-37.12L1157.44-37.12ZM1154.94-29.38L1154.94-21.18L1182.21-21.18L1182.21-29.38L1182.21-29.38Q1182.21-30.40 1181.47-31.14L1181.47-31.14L1181.47-31.14Q1180.74-31.87 1179.71-31.87L1179.71-31.87L1157.44-31.87L1157.44-31.87Q1156.42-31.87 1155.68-31.14L1155.68-31.14L1155.68-31.14Q1154.94-30.40 1154.94-29.38L1154.94-29.38Z" fill="url(#editing-glowing-gradient)"></path></g></g><style>text {
  font-size: 64px;
  font-family: Arial Black;
  dominant-baseline: central;
  text-anchor: middle;
}</style></svg>